# Blender 4.4.3
# www.blender.org
mtllib Estatua_base.mtl
o Content.001
v 1.397314 0.000002 -1.200002
v 1.397314 0.100002 -1.200002
v 1.397314 0.100002 1.199999
v 1.397314 0.000002 1.199999
v 1.197314 0.000002 1.199999
v 1.197314 0.100002 1.199999
v 1.197314 0.100002 1.399998
v 1.197314 0.000002 1.399998
v 1.197314 0.000002 -1.400002
v 1.197314 0.100002 -1.400002
v 1.197314 0.100002 -1.200002
v 1.197314 0.000002 -1.200002
v 0.697314 0.100003 -0.800001
v 0.697314 0.300001 -0.800001
v 0.697314 0.300001 0.799999
v 0.697314 0.100002 0.799999
v 0.597314 0.500002 -0.700001
v 0.597314 1.400002 -0.700001
v 0.597314 1.400001 0.699999
v 0.597314 0.500002 0.699999
v 0.497314 0.300001 -0.600001
v 0.497314 0.500002 -0.600001
v 0.497314 0.500002 0.599999
v 0.497314 0.300001 0.599999
v -0.502686 0.300001 0.599999
v -0.502686 0.500002 0.599999
v -0.502686 0.500002 -0.600001
v -0.502686 0.300001 -0.600001
v -0.602686 0.500002 0.699999
v -0.602686 1.400001 0.699999
v -0.602686 1.400002 -0.700001
v -0.602686 0.500002 -0.700001
v -0.702686 0.100002 0.799999
v -0.702686 0.300001 0.799999
v -0.702686 0.300001 -0.800001
v -0.702686 0.100003 -0.800001
v -1.202686 0.000002 1.399999
v -1.202686 0.100002 1.399999
v -1.202686 0.100002 1.199999
v -1.202686 0.000002 1.199999
v -1.202687 0.000002 -1.200002
v -1.202687 0.100002 -1.200002
v -1.202687 0.100002 -1.400002
v -1.202687 0.000002 -1.400002
v -1.402686 0.000002 1.199999
v -1.402686 0.100002 1.199999
v -1.402687 0.100002 -1.200002
v -1.402687 0.000002 -1.200002
v 1.197314 0.000002 1.399998
v -1.202686 0.000002 1.399999
v -1.202687 0.000002 -1.400002
v 1.197314 0.000002 -1.400002
v 1.397314 0.000002 1.199999
v 1.197314 0.000002 1.199999
v 1.197314 0.000002 -1.200002
v 1.397314 0.000002 -1.200002
v -1.202686 0.000002 1.199999
v -1.402686 0.000002 1.199999
v -1.402687 0.000002 -1.200002
v -1.202687 0.000002 -1.200002
v -0.502686 0.500002 0.699999
v -0.602686 0.500002 0.699999
v -0.602686 0.500002 -0.700001
v -0.502686 0.500002 -0.700001
v 0.597314 0.500002 0.599999
v 0.497314 0.500002 0.599999
v 0.497314 0.500002 -0.700001
v 0.597314 0.500002 -0.700001
v 0.597314 0.500002 0.699999
v -0.502686 0.500002 0.699999
v -0.502686 0.500002 0.599999
v 0.597314 0.500002 0.599999
v 0.497314 0.500002 -0.600001
v -0.502686 0.500002 -0.600001
v -0.502686 0.500002 -0.700001
v 0.497314 0.500002 -0.700001
v -0.702687 0.100002 -1.200002
v -1.402687 0.100002 -1.200002
v -1.402686 0.100002 1.199999
v -0.702686 0.100002 1.199999
v 1.397314 0.100002 -1.200002
v 0.697314 0.100002 -1.200002
v 0.697314 0.100002 0.799999
v 1.397314 0.100002 0.799998
v 1.397314 0.100002 0.799998
v -0.702686 0.100002 0.799999
v -0.702686 0.100002 1.199999
v 1.397314 0.100002 1.199999
v 0.697314 0.100002 -1.400002
v -0.702687 0.100002 -1.400002
v -0.702686 0.100003 -0.800001
v 0.697314 0.100003 -0.800001
v 1.197314 0.100002 1.199999
v -1.202686 0.100002 1.199999
v -1.202686 0.100002 1.399999
v 1.197314 0.100002 1.399998
v 1.197314 0.100002 -1.400002
v 0.697314 0.100002 -1.400002
v 0.697314 0.100002 -1.200002
v 1.197314 0.100002 -1.200002
v -0.702687 0.100002 -1.400002
v -1.202687 0.100002 -1.400002
v -1.202687 0.100002 -1.200002
v -0.702687 0.100002 -1.200002
v -0.502686 0.300001 -0.800001
v -0.702686 0.300001 -0.800001
v -0.702686 0.300001 0.799999
v -0.502686 0.300001 0.799999
v 0.697314 0.300001 -0.800001
v 0.497314 0.300001 -0.800001
v 0.497314 0.300001 0.599999
v 0.697314 0.300001 0.599999
v 0.697314 0.300001 0.599999
v -0.502686 0.300001 0.599999
v -0.502686 0.300001 0.799999
v 0.697314 0.300001 0.799999
v 0.497314 0.300001 -0.800001
v -0.502686 0.300001 -0.800001
v -0.502686 0.300001 -0.600001
v 0.497314 0.300001 -0.600001
v 0.597314 1.400002 -0.700001
v -0.602686 1.400002 -0.700001
v -0.602686 1.400001 0.699999
v 0.597314 1.400001 0.699999
v 1.197314 0.100002 1.399998
v -1.202686 0.100002 1.399999
v -1.202686 0.000002 1.399999
v 1.197314 0.000002 1.399998
v 1.397314 0.100002 1.199999
v 1.197314 0.100002 1.199999
v 1.197314 0.000002 1.199999
v 1.397314 0.000002 1.199999
v -1.202686 0.100002 1.199999
v -1.402686 0.100002 1.199999
v -1.402686 0.000002 1.199999
v -1.202686 0.000002 1.199999
v 0.697314 0.300001 0.799999
v -0.702686 0.300001 0.799999
v -0.702686 0.100002 0.799999
v 0.697314 0.100002 0.799999
v 0.597314 1.400001 0.699999
v -0.602686 1.400001 0.699999
v -0.602686 0.500002 0.699999
v 0.597314 0.500002 0.699999
v 0.497314 0.500002 0.599999
v -0.502686 0.500002 0.599999
v -0.502686 0.300001 0.599999
v 0.497314 0.300001 0.599999
v 0.497314 0.300001 -0.600001
v -0.502686 0.300001 -0.600001
v -0.502686 0.500002 -0.600001
v 0.497314 0.500002 -0.600001
v 0.597314 0.500002 -0.700001
v -0.602686 0.500002 -0.700001
v -0.602686 1.400002 -0.700001
v 0.597314 1.400002 -0.700001
v 0.697314 0.100003 -0.800001
v -0.702686 0.100003 -0.800001
v -0.702686 0.300001 -0.800001
v 0.697314 0.300001 -0.800001
v 1.397314 0.000002 -1.200002
v 1.197314 0.000002 -1.200002
v 1.197314 0.100002 -1.200002
v 1.397314 0.100002 -1.200002
v -1.202687 0.000002 -1.200002
v -1.402687 0.000002 -1.200002
v -1.402687 0.100002 -1.200002
v -1.202687 0.100002 -1.200002
v 1.197314 0.000002 -1.400002
v -1.202687 0.000002 -1.400002
v -1.202687 0.100002 -1.400002
v 1.197314 0.100002 -1.400002
vn 1.0000 -0.0000 -0.0000
vn -1.0000 -0.0000 -0.0000
vn -0.0000 -1.0000 -0.0000
vn -0.0000 1.0000 -0.0000
vn -0.0000 -0.0000 1.0000
vn -0.0000 -0.0000 -1.0000
vt 0.000000 0.812500
vt 0.007812 0.812500
vt 0.007812 1.000000
vt 0.000000 1.000000
vt 0.000000 0.984375
vt 0.007812 0.984375
vt 0.023438 0.875000
vt 0.039062 0.875000
vt 0.039062 1.000000
vt 0.023438 1.000000
vt 0.054688 0.890625
vt 0.125000 0.890625
vt 0.125000 1.000000
vt 0.054688 1.000000
vt 0.023438 0.765625
vt 0.039062 0.765625
vt 0.039062 0.859375
vt 0.023438 0.859375
vt 0.351562 1.000000
vt 0.367188 1.000000
vt 0.367188 0.906250
vt 0.351562 0.906250
vt 0.382812 1.000000
vt 0.570312 1.000000
vt 0.570312 0.781250
vt 0.382812 0.781250
vt 0.398438 1.000000
vt 0.398438 0.812500
vt 0.382812 0.812500
vt 0.031250 1.000000
vt 0.031250 0.890625
vt 0.023438 0.890625
vt 0.031250 0.898438
vt 0.023438 0.898438
vt 0.023438 0.914062
vt 0.031250 0.914062
vt 0.023438 0.921875
vt 0.031250 0.921875
vt 0.437500 0.812500
vt 0.437500 1.000000
vt 0.382812 0.843750
vt 0.437500 0.843750
vt 0.414062 0.835938
vt 0.414062 1.000000
vt 0.382812 0.835938
vt 0.429688 0.890625
vt 0.429688 1.000000
vt 0.382812 0.890625
vt 0.398438 0.960938
vt 0.382812 0.960938
vt 0.039062 0.890625
vt 0.039062 0.906250
vt 0.023438 0.906250
vt 0.039062 0.921875
vt 0.093750 0.562500
vt 0.187500 0.562500
vt 0.187500 0.671875
vt 0.093750 0.671875
vt 0.125000 0.906250
vt 0.054688 0.906250
vt 0.039062 0.781250
vt 0.023438 0.781250
s 0
usemtl Content-Material.001
f 1/1/1 2/2/1 3/3/1 4/4/1
f 5/5/1 6/6/1 7/3/1 8/4/1
f 9/5/1 10/6/1 11/3/1 12/4/1
f 13/7/1 14/8/1 15/9/1 16/10/1
f 17/11/1 18/12/1 19/13/1 20/14/1
f 21/15/1 22/16/1 23/17/1 24/18/1
f 25/19/2 26/20/2 27/21/2 28/22/2
f 29/14/2 30/13/2 31/12/2 32/11/2
f 33/10/2 34/9/2 35/8/2 36/7/2
f 37/4/2 38/3/2 39/6/2 40/5/2
f 41/4/2 42/3/2 43/6/2 44/5/2
f 45/4/2 46/3/2 47/2/2 48/1/2
f 49/23/3 50/24/3 51/25/3 52/26/3
f 53/23/3 54/27/3 55/28/3 56/29/3
f 57/23/3 58/27/3 59/28/3 60/29/3
f 61/10/3 62/30/3 63/31/3 64/32/3
f 65/10/3 66/30/3 67/33/3 68/34/3
f 69/35/3 70/10/3 71/30/3 72/36/3
f 73/37/3 74/10/3 75/30/3 76/38/3
f 77/29/4 78/39/4 79/40/4 80/23/4
f 81/41/4 82/42/4 83/40/4 84/23/4
f 85/43/4 86/44/4 87/23/4 88/45/4
f 89/46/4 90/47/4 91/23/4 92/48/4
f 93/28/4 94/27/4 95/23/4 96/29/4
f 97/49/4 98/27/4 99/23/4 100/50/4
f 101/49/4 102/27/4 103/23/4 104/50/4
f 105/7/4 106/8/4 107/9/4 108/10/4
f 109/32/4 110/51/4 111/9/4 112/10/4
f 113/52/4 114/9/4 115/10/4 116/53/4
f 117/54/4 118/9/4 119/10/4 120/37/4
f 121/55/4 122/56/4 123/57/4 124/58/4
f 125/2/5 126/3/5 127/4/5 128/1/5
f 129/6/5 130/3/5 131/4/5 132/5/5
f 133/6/5 134/3/5 135/4/5 136/5/5
f 137/51/5 138/9/5 139/10/5 140/32/5
f 141/59/5 142/13/5 143/14/5 144/60/5
f 145/61/5 146/17/5 147/18/5 148/62/5
f 149/62/6 150/18/6 151/17/6 152/61/6
f 153/60/6 154/14/6 155/13/6 156/59/6
f 157/32/6 158/10/6 159/9/6 160/51/6
f 161/5/6 162/4/6 163/3/6 164/6/6
f 165/5/6 166/4/6 167/3/6 168/6/6
f 169/1/6 170/4/6 171/3/6 172/2/6
