# Blender 4.4.3
# www.blender.org
mtllib Poste.mtl
o Content
v -0.120000 -0.000000 0.029881
v -0.120000 0.030000 0.029881
v -0.120000 0.030000 -0.030119
v -0.120000 -0.000000 -0.030119
v -0.090000 -0.000000 -0.030119
v -0.090000 0.030000 -0.030119
v -0.090000 0.030000 -0.090119
v -0.090000 -0.000000 -0.090119
v -0.090000 -0.000000 0.089881
v -0.090000 0.030000 0.089881
v -0.090000 0.030000 0.029881
v -0.090000 -0.000000 0.029881
v -0.060000 0.030000 0.059881
v -0.060000 1.500000 0.059881
v -0.060000 1.500000 -0.060119
v -0.060000 0.030000 -0.060119
v -0.030000 1.500000 0.029881
v -0.030000 3.360000 0.029881
v -0.030000 3.360000 -0.030119
v -0.030000 1.500000 -0.030119
v -0.030000 -0.000000 -0.090119
v -0.030000 0.030000 -0.090119
v -0.030000 0.030000 -0.120119
v -0.030000 -0.000000 -0.120119
v -0.030000 -0.000000 0.119881
v -0.030000 0.030000 0.119881
v -0.030000 0.030000 0.089881
v -0.030000 -0.000000 0.089881
v 0.030000 0.030000 -0.030119
v 0.030000 0.060000 -0.030119
v 0.030000 0.060000 -0.060119
v 0.030000 0.030000 -0.060119
v 0.030000 0.030000 0.059881
v 0.030000 0.060000 0.059881
v 0.030000 0.060000 0.029881
v 0.030000 0.030000 0.029881
v 0.330000 3.300000 -0.030119
v 0.330000 3.360000 -0.030119
v 0.330000 3.360000 -0.060119
v 0.330000 3.300000 -0.060119
v 0.330000 3.360000 0.029881
v 0.330000 3.390001 0.029881
v 0.330000 3.390001 -0.030119
v 0.330000 3.360000 -0.030119
v 0.330000 3.300000 0.059881
v 0.330000 3.360000 0.059881
v 0.330000 3.360000 0.029881
v 0.330000 3.300000 0.029881
v 0.360000 3.330000 -0.060119
v 0.360000 3.360000 -0.060119
v 0.360000 3.360000 -0.090119
v 0.360000 3.330000 -0.090119
v 0.360000 3.360000 -0.030119
v 0.360000 3.390001 -0.030119
v 0.360000 3.390001 -0.060119
v 0.360000 3.360000 -0.060119
v 0.360000 3.360000 0.059881
v 0.360000 3.390001 0.059881
v 0.360000 3.390001 0.029881
v 0.360000 3.360000 0.029881
v 0.360000 3.330000 0.089881
v 0.360000 3.360000 0.089881
v 0.360000 3.360000 0.059881
v 0.360000 3.330000 0.059881
v 0.390000 3.270000 0.029881
v 0.390000 3.300000 0.029881
v 0.390000 3.300000 -0.030119
v 0.390000 3.270000 -0.030119
v 0.390000 3.300000 -0.060119
v 0.390000 3.330000 -0.060119
v 0.390000 3.330000 -0.090119
v 0.390000 3.300000 -0.090119
v 0.390000 3.300000 0.089881
v 0.390000 3.330000 0.089881
v 0.390000 3.330000 0.059881
v 0.390000 3.300000 0.059881
v 0.420000 3.270000 -0.030119
v 0.420000 3.300000 -0.030119
v 0.420000 3.300000 -0.060119
v 0.420000 3.270000 -0.060119
v 0.420000 3.270000 0.059881
v 0.420000 3.300000 0.059881
v 0.420000 3.300000 0.029881
v 0.420000 3.270000 0.029881
v -0.030000 0.030000 -0.060119
v -0.030000 0.060000 -0.060119
v -0.030000 0.060000 -0.030119
v -0.030000 0.030000 -0.030119
v -0.030000 0.030000 0.029881
v -0.030000 0.060000 0.029881
v -0.030000 0.060000 0.059881
v -0.030000 0.030000 0.059881
v 0.030000 1.500000 -0.030119
v 0.030000 3.300000 -0.030119
v 0.030000 3.300000 0.029881
v 0.030000 1.500000 0.029881
v 0.030000 -0.000000 -0.120119
v 0.030000 0.030000 -0.120119
v 0.030000 0.030000 -0.090119
v 0.030000 -0.000000 -0.090119
v 0.030000 -0.000000 0.089881
v 0.030000 0.030000 0.089881
v 0.030000 0.030000 0.119881
v 0.030000 -0.000000 0.119881
v 0.060000 0.030000 -0.060119
v 0.060000 1.500000 -0.060119
v 0.060000 1.500000 0.059881
v 0.060000 0.030000 0.059881
v 0.090000 -0.000000 -0.090119
v 0.090000 0.030000 -0.090119
v 0.090000 0.030000 -0.030119
v 0.090000 -0.000000 -0.030119
v 0.090000 -0.000000 0.029881
v 0.090000 0.030000 0.029881
v 0.090000 0.030000 0.089881
v 0.090000 -0.000000 0.089881
v 0.120000 -0.000000 -0.030119
v 0.120000 0.030000 -0.030119
v 0.120000 0.030000 0.029881
v 0.120000 -0.000000 0.029881
v 0.540000 3.360000 -0.060119
v 0.540000 3.390001 -0.060119
v 0.540000 3.390001 0.059881
v 0.540000 3.360000 0.059881
v 0.540000 3.300000 -0.090119
v 0.540000 3.360000 -0.090119
v 0.540000 3.360000 -0.060119
v 0.540000 3.300000 -0.060119
v 0.540000 3.300000 0.059881
v 0.540000 3.360000 0.059881
v 0.540000 3.360000 0.089881
v 0.540000 3.300000 0.089881
v 0.540000 3.270000 -0.060119
v 0.540000 3.300000 -0.060119
v 0.540000 3.300000 -0.030119
v 0.540000 3.270000 -0.030119
v 0.540000 3.270000 0.029881
v 0.540000 3.300000 0.029881
v 0.540000 3.300000 0.059881
v 0.540000 3.270000 0.059881
v 0.570000 3.300000 -0.060119
v 0.570000 3.360000 -0.060119
v 0.570000 3.360000 -0.030119
v 0.570000 3.300000 -0.030119
v 0.570000 3.270000 -0.030119
v 0.570000 3.300000 -0.030119
v 0.570000 3.300000 0.029881
v 0.570000 3.270000 0.029881
v 0.570000 3.300000 0.029881
v 0.570000 3.360000 0.029881
v 0.570000 3.360000 0.059881
v 0.570000 3.300000 0.059881
v 0.600000 3.300000 -0.030119
v 0.600000 3.360000 -0.030119
v 0.600000 3.360000 0.029881
v 0.600000 3.300000 0.029881
v -0.090000 -0.000000 -0.090119
v 0.090000 -0.000000 -0.090119
v 0.090000 -0.000000 0.089881
v -0.090000 -0.000000 0.089881
v -0.030000 -0.000000 -0.120119
v 0.030000 -0.000000 -0.120119
v 0.030000 -0.000000 -0.090119
v -0.030000 -0.000000 -0.090119
v -0.120000 -0.000000 -0.030119
v -0.090000 -0.000000 -0.030119
v -0.090000 -0.000000 0.029881
v -0.120000 -0.000000 0.029881
v 0.090000 -0.000000 -0.030119
v 0.120000 -0.000000 -0.030119
v 0.120000 -0.000000 0.029881
v 0.090000 -0.000000 0.029881
v -0.030000 -0.000000 0.089881
v 0.030000 -0.000000 0.089881
v 0.030000 -0.000000 0.119881
v -0.030000 -0.000000 0.119881
v -0.030000 0.060000 -0.060119
v 0.030000 0.060000 -0.060119
v 0.030000 0.060000 -0.030119
v -0.030000 0.060000 -0.030119
v -0.030000 0.060000 0.029881
v 0.030000 0.060000 0.029881
v 0.030000 0.060000 0.059881
v -0.030000 0.060000 0.059881
v 0.420000 3.270000 -0.060119
v 0.540000 3.270000 -0.060119
v 0.540000 3.270000 0.059881
v 0.420000 3.270000 0.059881
v 0.390000 3.270000 -0.030119
v 0.420000 3.270000 -0.030119
v 0.420000 3.270000 0.029881
v 0.390000 3.270000 0.029881
v 0.540000 3.270000 -0.030119
v 0.570000 3.270000 -0.030119
v 0.570000 3.270000 0.029881
v 0.540000 3.270000 0.029881
v 0.030000 3.300000 -0.030119
v 0.390000 3.300000 -0.030119
v 0.390000 3.300000 0.029881
v 0.030000 3.300000 0.029881
v 0.390000 3.300000 -0.090119
v 0.540000 3.300000 -0.090119
v 0.540000 3.300000 -0.060119
v 0.390000 3.300000 -0.060119
v 0.390000 3.300000 0.059881
v 0.540000 3.300000 0.059881
v 0.540000 3.300000 0.089881
v 0.390000 3.300000 0.089881
v 0.330000 3.300000 -0.060119
v 0.420000 3.300000 -0.060119
v 0.420000 3.300000 -0.030119
v 0.330000 3.300000 -0.030119
v 0.330000 3.300000 0.029881
v 0.420000 3.300000 0.029881
v 0.420000 3.300000 0.059881
v 0.330000 3.300000 0.059881
v 0.570000 3.300000 -0.030119
v 0.600000 3.300000 -0.030119
v 0.600000 3.300000 0.029881
v 0.570000 3.300000 0.029881
v 0.540000 3.300000 -0.060119
v 0.570000 3.300000 -0.060119
v 0.570000 3.300000 -0.030119
v 0.540000 3.300000 -0.030119
v 0.540000 3.300000 0.029881
v 0.570000 3.300000 0.029881
v 0.570000 3.300000 0.059881
v 0.540000 3.300000 0.059881
v 0.360000 3.330000 -0.090119
v 0.390000 3.330000 -0.090119
v 0.390000 3.330000 -0.060119
v 0.360000 3.330000 -0.060119
v 0.360000 3.330000 0.059881
v 0.390000 3.330000 0.059881
v 0.390000 3.330000 0.089881
v 0.360000 3.330000 0.089881
v -0.030000 0.030000 -0.030119
v 0.030000 0.030000 -0.030119
v 0.030000 0.030000 -0.120119
v -0.030000 0.030000 -0.120119
v 0.060000 0.030000 0.089881
v 0.090000 0.030000 0.089881
v 0.090000 0.030000 -0.090119
v 0.060000 0.030000 -0.090119
v -0.030000 0.030000 0.119881
v 0.030000 0.030000 0.119881
v 0.030000 0.030000 0.029881
v -0.030000 0.030000 0.029881
v -0.090000 0.030000 0.089881
v -0.060000 0.030000 0.089881
v -0.060000 0.030000 -0.060119
v -0.090000 0.030000 -0.060119
v -0.090000 0.030000 -0.060119
v -0.030000 0.030000 -0.060119
v -0.030000 0.030000 -0.090119
v -0.090000 0.030000 -0.090119
v -0.120000 0.030000 0.029881
v -0.090000 0.030000 0.029881
v -0.090000 0.030000 -0.030119
v -0.120000 0.030000 -0.030119
v 0.090000 0.030000 0.029881
v 0.120000 0.030000 0.029881
v 0.120000 0.030000 -0.030119
v 0.090000 0.030000 -0.030119
v 0.030000 0.030000 -0.060119
v 0.060000 0.030000 -0.060119
v 0.060000 0.030000 -0.090119
v 0.030000 0.030000 -0.090119
v -0.060000 0.030000 0.089881
v -0.030000 0.030000 0.089881
v -0.030000 0.030000 0.059881
v -0.060000 0.030000 0.059881
v 0.030000 0.030000 0.089881
v 0.060000 0.030000 0.089881
v 0.060000 0.030000 0.059881
v 0.030000 0.030000 0.059881
v -0.060000 1.500000 -0.030119
v 0.060000 1.500000 -0.030119
v 0.060000 1.500000 -0.060119
v -0.060000 1.500000 -0.060119
v -0.060000 1.500000 0.059881
v 0.060000 1.500000 0.059881
v 0.060000 1.500000 0.029881
v -0.060000 1.500000 0.029881
v -0.060000 1.500000 0.029881
v -0.030000 1.500000 0.029881
v -0.030000 1.500000 -0.030119
v -0.060000 1.500000 -0.030119
v 0.030000 1.500000 0.029881
v 0.060000 1.500000 0.029881
v 0.060000 1.500000 -0.030119
v 0.030000 1.500000 -0.030119
v -0.030000 3.360000 0.029881
v 0.330000 3.360000 0.029881
v 0.330000 3.360000 -0.030119
v -0.030000 3.360000 -0.030119
v 0.360000 3.360000 -0.060119
v 0.540000 3.360000 -0.060119
v 0.540000 3.360000 -0.090119
v 0.360000 3.360000 -0.090119
v 0.360000 3.360000 0.089881
v 0.540000 3.360000 0.089881
v 0.540000 3.360000 0.059881
v 0.360000 3.360000 0.059881
v 0.540000 3.360000 0.059881
v 0.570000 3.360000 0.059881
v 0.570000 3.360000 -0.060119
v 0.540000 3.360000 -0.060119
v 0.570000 3.360000 0.029881
v 0.600000 3.360000 0.029881
v 0.600000 3.360000 -0.030119
v 0.570000 3.360000 -0.030119
v 0.330000 3.360000 -0.030119
v 0.360000 3.360000 -0.030119
v 0.360000 3.360000 -0.060119
v 0.330000 3.360000 -0.060119
v 0.330000 3.360000 0.059881
v 0.360000 3.360000 0.059881
v 0.360000 3.360000 0.029881
v 0.330000 3.360000 0.029881
v 0.360000 3.390001 0.059881
v 0.540000 3.390001 0.059881
v 0.540000 3.390001 -0.060119
v 0.360000 3.390001 -0.060119
v 0.330000 3.390001 0.029881
v 0.360000 3.390001 0.029881
v 0.360000 3.390001 -0.030119
v 0.330000 3.390001 -0.030119
v -0.030000 0.030000 -0.120119
v 0.030000 0.030000 -0.120119
v 0.030000 -0.000000 -0.120119
v -0.030000 -0.000000 -0.120119
v 0.390000 3.360000 -0.090119
v 0.540000 3.360000 -0.090119
v 0.540000 3.300000 -0.090119
v 0.390000 3.300000 -0.090119
v -0.090000 0.030000 -0.090119
v -0.030000 0.030000 -0.090119
v -0.030000 -0.000000 -0.090119
v -0.090000 -0.000000 -0.090119
v 0.030000 0.030000 -0.090119
v 0.090000 0.030000 -0.090119
v 0.090000 -0.000000 -0.090119
v 0.030000 -0.000000 -0.090119
v 0.360000 3.360000 -0.090119
v 0.390000 3.360000 -0.090119
v 0.390000 3.330000 -0.090119
v 0.360000 3.330000 -0.090119
v -0.060000 1.500000 -0.060119
v 0.060000 1.500000 -0.060119
v 0.060000 0.060000 -0.060119
v -0.060000 0.060000 -0.060119
v 0.360000 3.390001 -0.060119
v 0.540000 3.390001 -0.060119
v 0.540000 3.360000 -0.060119
v 0.360000 3.360000 -0.060119
v 0.420000 3.300000 -0.060119
v 0.540000 3.300000 -0.060119
v 0.540000 3.270000 -0.060119
v 0.420000 3.270000 -0.060119
v 0.330000 3.330000 -0.060119
v 0.390000 3.330000 -0.060119
v 0.390000 3.300000 -0.060119
v 0.330000 3.300000 -0.060119
v 0.540000 3.360000 -0.060119
v 0.570000 3.360000 -0.060119
v 0.570000 3.300000 -0.060119
v 0.540000 3.300000 -0.060119
v -0.060000 0.060000 -0.060119
v -0.030000 0.060000 -0.060119
v -0.030000 0.030000 -0.060119
v -0.060000 0.030000 -0.060119
v 0.030000 0.060000 -0.060119
v 0.060000 0.060000 -0.060119
v 0.060000 0.030000 -0.060119
v 0.030000 0.030000 -0.060119
v 0.330000 3.360000 -0.060119
v 0.360000 3.360000 -0.060119
v 0.360000 3.330000 -0.060119
v 0.330000 3.330000 -0.060119
v -0.030000 3.360000 -0.030119
v 0.030000 3.360000 -0.030119
v 0.030000 1.500000 -0.030119
v -0.030000 1.500000 -0.030119
v 0.030000 3.360000 -0.030119
v 0.330000 3.360000 -0.030119
v 0.330000 3.300000 -0.030119
v 0.030000 3.300000 -0.030119
v -0.030000 0.060000 -0.030119
v 0.030000 0.060000 -0.030119
v 0.030000 0.030000 -0.030119
v -0.030000 0.030000 -0.030119
v 0.570000 3.360000 -0.030119
v 0.600000 3.360000 -0.030119
v 0.600000 3.300000 -0.030119
v 0.570000 3.300000 -0.030119
v -0.120000 0.030000 -0.030119
v -0.090000 0.030000 -0.030119
v -0.090000 -0.000000 -0.030119
v -0.120000 -0.000000 -0.030119
v 0.090000 0.030000 -0.030119
v 0.120000 0.030000 -0.030119
v 0.120000 -0.000000 -0.030119
v 0.090000 -0.000000 -0.030119
v 0.390000 3.300000 -0.030119
v 0.420000 3.300000 -0.030119
v 0.420000 3.270000 -0.030119
v 0.390000 3.270000 -0.030119
v 0.540000 3.300000 -0.030119
v 0.570000 3.300000 -0.030119
v 0.570000 3.270000 -0.030119
v 0.540000 3.270000 -0.030119
v 0.330000 3.390001 -0.030119
v 0.360000 3.390001 -0.030119
v 0.360000 3.360000 -0.030119
v 0.330000 3.360000 -0.030119
v -0.030000 1.500000 0.029881
v 0.030000 1.500000 0.029881
v 0.030000 3.360000 0.029881
v -0.030000 3.360000 0.029881
v 0.030000 3.300000 0.029881
v 0.330000 3.300000 0.029881
v 0.330000 3.360000 0.029881
v 0.030000 3.360000 0.029881
v -0.030000 0.030000 0.029881
v 0.030000 0.030000 0.029881
v 0.030000 0.060000 0.029881
v -0.030000 0.060000 0.029881
v 0.570000 3.300000 0.029881
v 0.600000 3.300000 0.029881
v 0.600000 3.360000 0.029881
v 0.570000 3.360000 0.029881
v -0.120000 -0.000000 0.029881
v -0.090000 -0.000000 0.029881
v -0.090000 0.030000 0.029881
v -0.120000 0.030000 0.029881
v 0.090000 -0.000000 0.029881
v 0.120000 -0.000000 0.029881
v 0.120000 0.030000 0.029881
v 0.090000 0.030000 0.029881
v 0.390000 3.270000 0.029881
v 0.420000 3.270000 0.029881
v 0.420000 3.300000 0.029881
v 0.390000 3.300000 0.029881
v 0.540000 3.270000 0.029881
v 0.570000 3.270000 0.029881
v 0.570000 3.300000 0.029881
v 0.540000 3.300000 0.029881
v 0.330000 3.360000 0.029881
v 0.360000 3.360000 0.029881
v 0.360000 3.390001 0.029881
v 0.330000 3.390001 0.029881
v -0.060000 0.060000 0.059881
v 0.060000 0.060000 0.059881
v 0.060000 1.500000 0.059881
v -0.060000 1.500000 0.059881
v 0.360000 3.360000 0.059881
v 0.540000 3.360000 0.059881
v 0.540000 3.390001 0.059881
v 0.360000 3.390001 0.059881
v 0.420000 3.270000 0.059881
v 0.540000 3.270000 0.059881
v 0.540000 3.300000 0.059881
v 0.420000 3.300000 0.059881
v 0.330000 3.300000 0.059881
v 0.390000 3.300000 0.059881
v 0.390000 3.330000 0.059881
v 0.330000 3.330000 0.059881
v 0.540000 3.300000 0.059881
v 0.570000 3.300000 0.059881
v 0.570000 3.360000 0.059881
v 0.540000 3.360000 0.059881
v -0.060000 0.030000 0.059881
v -0.030000 0.030000 0.059881
v -0.030000 0.060000 0.059881
v -0.060000 0.060000 0.059881
v 0.030000 0.030000 0.059881
v 0.060000 0.030000 0.059881
v 0.060000 0.060000 0.059881
v 0.030000 0.060000 0.059881
v 0.330000 3.330000 0.059881
v 0.360000 3.330000 0.059881
v 0.360000 3.360000 0.059881
v 0.330000 3.360000 0.059881
v 0.390000 3.300000 0.089881
v 0.540000 3.300000 0.089881
v 0.540000 3.360000 0.089881
v 0.390000 3.360000 0.089881
v -0.090000 -0.000000 0.089881
v -0.030000 -0.000000 0.089881
v -0.030000 0.030000 0.089881
v -0.090000 0.030000 0.089881
v 0.030000 -0.000000 0.089881
v 0.090000 -0.000000 0.089881
v 0.090000 0.030000 0.089881
v 0.030000 0.030000 0.089881
v 0.360000 3.330000 0.089881
v 0.390000 3.330000 0.089881
v 0.390000 3.360000 0.089881
v 0.360000 3.360000 0.089881
v -0.030000 -0.000000 0.119881
v 0.030000 -0.000000 0.119881
v 0.030000 0.030000 0.119881
v -0.030000 0.030000 0.119881
vn -1.0000 -0.0000 -0.0000
vn 1.0000 -0.0000 -0.0000
vn -0.0000 -1.0000 -0.0000
vn -0.0000 1.0000 -0.0000
vn -0.0000 -0.0000 -1.0000
vn -0.0000 -0.0000 1.0000
vt 0.000000 0.984375
vt 0.007812 0.984375
vt 0.007812 1.000000
vt 0.000000 1.000000
vt 0.054688 0.617188
vt 0.054688 1.000000
vt 0.023438 1.000000
vt 0.023438 0.617188
vt 0.039062 0.117188
vt 0.039062 0.601562
vt 0.023438 0.601562
vt 0.023438 0.117188
vt 0.000000 0.992188
vt 0.007812 0.992188
vt 0.000000 0.953125
vt 0.007812 0.953125
vt 0.007812 0.968750
vt 0.000000 0.968750
vt 0.000000 0.960938
vt 0.007812 0.960938
vt 0.070312 0.531250
vt 0.070312 1.000000
vt 0.085938 1.000000
vt 0.085938 0.531250
vt 0.000000 0.937500
vt 0.007812 0.937500
vt 0.007812 0.906250
vt 0.000000 0.906250
vt 0.000000 0.875000
vt 0.000000 0.890625
vt 0.007812 0.890625
vt 0.007812 0.875000
vt 0.000000 0.843750
vt 0.000000 0.859375
vt 0.007812 0.859375
vt 0.007812 0.843750
vt 0.000000 0.812500
vt 0.000000 0.828125
vt 0.007812 0.828125
vt 0.007812 0.812500
vt 0.000000 0.781250
vt 0.000000 0.796875
vt 0.007812 0.796875
vt 0.007812 0.781250
vt 0.070312 0.515625
vt 0.085938 0.515625
vt 0.085938 0.500000
vt 0.070312 0.500000
vt 0.101562 1.000000
vt 0.148438 1.000000
vt 0.148438 0.953125
vt 0.101562 0.953125
vt 0.164062 1.000000
vt 0.195312 1.000000
vt 0.195312 0.968750
vt 0.164062 0.968750
vt 0.171875 1.000000
vt 0.171875 0.984375
vt 0.164062 0.984375
vt 0.070312 0.390625
vt 0.070312 0.484375
vt 0.085938 0.484375
vt 0.085938 0.390625
vt 0.000000 0.726562
vt 0.000000 0.765625
vt 0.007812 0.765625
vt 0.007812 0.726562
vt 0.000000 0.687500
vt 0.000000 0.710938
vt 0.007812 0.710938
vt 0.007812 0.687500
vt 0.171875 0.992188
vt 0.164062 0.992188
vt 0.023438 0.976562
vt 0.039062 0.976562
vt 0.039062 1.000000
vt 0.023438 0.953125
vt 0.031250 0.953125
vt 0.031250 1.000000
vt 0.023438 0.960938
vt 0.031250 0.960938
vt 0.031250 0.968750
vt 0.023438 0.968750
vt 0.085938 0.906250
vt 0.070312 0.906250
vt 0.054688 0.953125
vt 0.085938 0.335938
vt 0.085938 0.375000
vt 0.070312 0.375000
vt 0.070312 0.335938
vt 0.023438 0.625000
vt 0.054688 0.625000
vt 0.007812 0.625000
vt 0.007812 0.671875
vt 0.000000 0.671875
vt 0.000000 0.625000
vt 0.007812 0.734375
vt 0.000000 0.734375
vt 0.007812 0.703125
vt 0.000000 0.703125
vt 0.000000 0.593750
vt 0.007812 0.593750
vt 0.007812 0.609375
vt 0.000000 0.609375
vt 0.101562 0.453125
vt 0.117188 0.453125
vt 0.117188 0.937500
vt 0.101562 0.937500
vt 0.085938 0.242188
vt 0.085938 0.320312
vt 0.070312 0.320312
vt 0.070312 0.242188
vt 0.000000 0.562500
vt 0.007812 0.562500
vt 0.007812 0.578125
vt 0.000000 0.578125
vt 0.132812 0.937500
vt 0.148438 0.937500
vt 0.148438 0.453125
vt 0.132812 0.453125
vt 0.070312 0.148438
vt 0.070312 0.226562
vt 0.085938 0.226562
vt 0.085938 0.148438
vt 0.000000 0.546875
vt 0.007812 0.546875
vt 0.007812 0.531250
vt 0.000000 0.531250
vt 0.000000 0.515625
vt 0.007812 0.515625
vt 0.007812 0.500000
vt 0.000000 0.500000
vt 0.210938 0.960938
vt 0.210938 1.000000
vt 0.226562 1.000000
vt 0.226562 0.960938
s 0
usemtl Content-Material
f 1/1/1 2/2/1 3/3/1 4/4/1
f 5/1/1 6/2/1 7/3/1 8/4/1
f 9/1/1 10/2/1 11/3/1 12/4/1
f 13/5/1 14/6/1 15/7/1 16/8/1
f 17/9/1 18/10/1 19/11/1 20/12/1
f 21/13/1 22/14/1 23/3/1 24/4/1
f 25/13/1 26/14/1 27/3/1 28/4/1
f 29/13/1 30/14/1 31/3/1 32/4/1
f 33/13/1 34/14/1 35/3/1 36/4/1
f 37/2/1 38/3/1 39/4/1 40/1/1
f 41/1/1 42/2/1 43/3/1 44/4/1
f 45/2/1 46/3/1 47/4/1 48/1/1
f 49/13/1 50/14/1 51/3/1 52/4/1
f 53/13/1 54/14/1 55/3/1 56/4/1
f 57/13/1 58/14/1 59/3/1 60/4/1
f 61/13/1 62/14/1 63/3/1 64/4/1
f 65/15/1 66/16/1 67/17/1 68/18/1
f 69/19/1 70/20/1 71/17/1 72/18/1
f 73/19/1 74/20/1 75/17/1 76/18/1
f 77/19/1 78/20/1 79/17/1 80/18/1
f 81/19/1 82/20/1 83/17/1 84/18/1
f 85/4/2 86/3/2 87/14/2 88/13/2
f 89/4/2 90/3/2 91/14/2 92/13/2
f 93/21/2 94/22/2 95/23/2 96/24/2
f 97/4/2 98/3/2 99/14/2 100/13/2
f 101/4/2 102/3/2 103/14/2 104/13/2
f 105/8/2 106/7/2 107/6/2 108/5/2
f 109/4/2 110/3/2 111/2/2 112/1/2
f 113/4/2 114/3/2 115/2/2 116/1/2
f 117/4/2 118/3/2 119/2/2 120/1/2
f 121/25/2 122/26/2 123/27/2 124/28/2
f 125/29/2 126/30/2 127/31/2 128/32/2
f 129/33/2 130/34/2 131/35/2 132/36/2
f 133/18/2 134/17/2 135/20/2 136/19/2
f 137/18/2 138/17/2 139/20/2 140/19/2
f 141/37/2 142/38/2 143/39/2 144/40/2
f 145/18/2 146/17/2 147/16/2 148/15/2
f 149/41/2 150/42/2 151/43/2 152/44/2
f 153/45/2 154/46/2 155/47/2 156/48/2
f 157/49/3 158/50/3 159/51/3 160/52/3
f 161/1/3 162/4/3 163/3/3 164/2/3
f 165/4/3 166/3/3 167/2/3 168/1/3
f 169/4/3 170/3/3 171/2/3 172/1/3
f 173/1/3 174/4/3 175/3/3 176/2/3
f 177/1/3 178/4/3 179/3/3 180/2/3
f 181/1/3 182/4/3 183/3/3 184/2/3
f 185/53/3 186/54/3 187/55/3 188/56/3
f 189/53/3 190/57/3 191/58/3 192/59/3
f 193/53/3 194/57/3 195/58/3 196/59/3
f 197/60/3 198/61/3 199/62/3 200/63/3
f 201/64/3 202/65/3 203/66/3 204/67/3
f 205/64/3 206/65/3 207/66/3 208/67/3
f 209/68/3 210/69/3 211/70/3 212/71/3
f 213/68/3 214/69/3 215/70/3 216/71/3
f 217/53/3 218/57/3 219/58/3 220/59/3
f 221/53/3 222/57/3 223/72/3 224/73/3
f 225/53/3 226/57/3 227/72/3 228/73/3
f 229/4/3 230/3/3 231/14/3 232/13/3
f 233/4/3 234/3/3 235/14/3 236/13/3
f 237/74/4 238/75/4 239/76/4 240/7/4
f 241/77/4 242/78/4 243/79/4 244/7/4
f 245/74/4 246/75/4 247/76/4 248/7/4
f 249/80/4 250/81/4 251/79/4 252/7/4
f 253/2/4 254/3/4 255/4/4 256/1/4
f 257/1/4 258/2/4 259/3/4 260/4/4
f 261/1/4 262/2/4 263/3/4 264/4/4
f 265/13/4 266/14/4 267/3/4 268/4/4
f 269/13/4 270/14/4 271/3/4 272/4/4
f 273/13/4 274/14/4 275/3/4 276/4/4
f 277/82/4 278/79/4 279/7/4 280/83/4
f 281/82/4 282/79/4 283/7/4 284/83/4
f 285/1/4 286/2/4 287/3/4 288/4/4
f 289/1/4 290/2/4 291/3/4 292/4/4
f 293/84/4 294/23/4 295/22/4 296/85/4
f 297/78/4 298/79/4 299/7/4 300/77/4
f 301/78/4 302/79/4 303/7/4 304/77/4
f 305/83/4 306/82/4 307/79/4 308/7/4
f 309/1/4 310/2/4 311/3/4 312/4/4
f 313/13/4 314/14/4 315/3/4 316/4/4
f 317/13/4 318/14/4 319/3/4 320/4/4
f 321/86/4 322/6/4 323/7/4 324/77/4
f 325/1/4 326/2/4 327/3/4 328/4/4
f 329/2/5 330/3/5 331/4/5 332/1/5
f 333/87/5 334/88/5 335/89/5 336/90/5
f 337/2/5 338/3/5 339/4/5 340/1/5
f 341/2/5 342/3/5 343/4/5 344/1/5
f 345/13/5 346/14/5 347/3/5 348/4/5
f 349/91/5 350/92/5 351/6/5 352/7/5
f 353/93/5 354/94/5 355/95/5 356/96/5
f 357/97/5 358/66/5 359/65/5 360/98/5
f 361/71/5 362/99/5 363/100/5 364/68/5
f 365/101/5 366/102/5 367/103/5 368/104/5
f 369/13/5 370/14/5 371/3/5 372/4/5
f 373/13/5 374/14/5 375/3/5 376/4/5
f 377/13/5 378/14/5 379/3/5 380/4/5
f 381/105/5 382/106/5 383/107/5 384/108/5
f 385/109/5 386/110/5 387/111/5 388/112/5
f 389/2/5 390/3/5 391/4/5 392/1/5
f 393/113/5 394/114/5 395/115/5 396/116/5
f 397/13/5 398/14/5 399/3/5 400/4/5
f 401/13/5 402/14/5 403/3/5 404/4/5
f 405/73/5 406/72/5 407/57/5 408/53/5
f 409/73/5 410/72/5 411/57/5 412/53/5
f 413/13/5 414/14/5 415/3/5 416/4/5
f 417/117/6 418/118/6 419/119/6 420/120/6
f 421/121/6 422/122/6 423/123/6 424/124/6
f 425/1/6 426/4/6 427/3/6 428/2/6
f 429/125/6 430/126/6 431/127/6 432/128/6
f 433/4/6 434/3/6 435/14/6 436/13/6
f 437/4/6 438/3/6 439/14/6 440/13/6
f 441/53/6 442/57/6 443/72/6 444/73/6
f 445/53/6 446/57/6 447/72/6 448/73/6
f 449/4/6 450/3/6 451/14/6 452/13/6
f 453/7/6 454/6/6 455/92/6 456/91/6
f 457/96/6 458/95/6 459/94/6 460/93/6
f 461/98/6 462/65/6 463/66/6 464/97/6
f 465/68/6 466/100/6 467/99/6 468/71/6
f 469/129/6 470/130/6 471/131/6 472/132/6
f 473/4/6 474/3/6 475/14/6 476/13/6
f 477/4/6 478/3/6 479/14/6 480/13/6
f 481/4/6 482/3/6 483/14/6 484/13/6
f 485/133/6 486/134/6 487/135/6 488/136/6
f 489/1/6 490/4/6 491/3/6 492/2/6
f 493/1/6 494/4/6 495/3/6 496/2/6
f 497/4/6 498/3/6 499/14/6 500/13/6
f 501/1/6 502/4/6 503/3/6 504/2/6
