# Blender 4.4.3
# www.blender.org
mtllib Foco.mtl
o Untitled.014
v -0.200000 -0.100001 0.200000
v -0.200000 -0.100001 -0.200000
v -0.200000 -0.000001 0.200000
v -0.200000 -0.000001 -0.200000
v 0.200000 -0.100001 0.200000
v 0.200000 -0.100001 -0.200000
v 0.200000 -0.000001 0.200000
v 0.200000 -0.000001 -0.200000
v -0.200000 -0.100001 0.200000
v -0.200000 -0.000001 0.200000
v 0.200000 -0.100001 0.200000
v 0.200000 -0.000001 0.200000
v -0.200000 -0.100001 -0.200000
v -0.200000 -0.000001 -0.200000
v 0.200000 -0.100001 -0.200000
v 0.200000 -0.000001 -0.200000
v -0.200000 -0.100001 0.200000
v 0.200000 -0.100001 0.200000
v -0.200000 -0.100001 -0.200000
v 0.200000 -0.100001 -0.200000
vn -1.0000 -0.0000 -0.0000
vn 1.0000 -0.0000 -0.0000
vn -0.0000 -0.0000 1.0000
vn -0.0000 -0.0000 -1.0000
vn -0.0000 -1.0000 -0.0000
vt 0.992565 0.100551
vt 0.995851 0.090510
vt 0.995851 0.100551
vt 0.992565 0.090510
vt 0.986101 0.100608
vt 0.986101 0.090567
vt 0.989387 0.100608
vt 0.989387 0.090567
vt 0.989394 0.090567
vt 0.992679 0.100608
vt 0.989394 0.100608
vt 0.992679 0.090567
vt 0.999143 0.100551
vt 0.995858 0.100551
vt 0.999143 0.090510
vt 0.995858 0.090510
vt 0.999185 0.090555
vt 0.986043 0.100596
vt 0.986043 0.090555
vt 0.999185 0.100596
s 1
usemtl palette.014
f 3/1/1 2/2/1 1/3/1
f 4/4/1 2/2/1 3/1/1
f 5/5/2 6/6/2 7/7/2
f 7/7/2 6/6/2 8/8/2
f 11/9/3 10/10/3 9/11/3
f 12/12/3 10/10/3 11/9/3
f 13/13/4 14/14/4 15/15/4
f 15/15/4 14/14/4 16/16/4
f 19/17/5 18/18/5 17/19/5
f 20/20/5 18/18/5 19/17/5
