# Blender 4.4.3
# www.blender.org
mtllib Silla.mtl
o Untitled.002
v -0.600022 0.000000 -0.000002
v -0.600022 0.000000 -0.100002
v -0.600022 0.000000 -0.400002
v -0.600022 0.000000 -0.500002
v -0.600022 0.400000 -0.100002
v -0.600022 0.400000 -0.400002
v -0.600022 0.500000 -0.000002
v -0.600022 0.500000 -0.500002
v -0.100022 0.000000 -0.000002
v -0.100022 0.000000 -0.100002
v -0.100022 0.000000 -0.400002
v -0.100022 0.000000 -0.500002
v -0.100022 0.400000 -0.000002
v -0.100022 0.400000 -0.100002
v -0.100022 0.400000 -0.400002
v -0.100022 0.400000 -0.500002
v -0.100022 0.500000 -0.000002
v -0.100022 0.500000 -0.500002
v -0.100022 1.000000 -0.000002
v -0.100022 1.000000 -0.500002
v -0.500022 0.000000 -0.000002
v -0.500022 0.000000 -0.100002
v -0.500022 0.000000 -0.400002
v -0.500022 0.000000 -0.500002
v -0.500022 0.400000 -0.000002
v -0.500022 0.400000 -0.100002
v -0.500022 0.400000 -0.400002
v -0.500022 0.400000 -0.500002
v -0.000022 0.000000 -0.000002
v -0.000022 0.000000 -0.100002
v -0.000022 0.000000 -0.400002
v -0.000022 0.000000 -0.500002
v -0.000022 0.400000 -0.100002
v -0.000022 0.400000 -0.400002
v -0.000022 1.000000 -0.000002
v -0.000022 1.000000 -0.500002
v -0.600022 0.000000 -0.000002
v -0.600022 0.500000 -0.000002
v -0.500022 0.000000 -0.000002
v -0.500022 0.400000 -0.000002
v -0.100022 0.000000 -0.000002
v -0.100022 0.400000 -0.000002
v -0.100022 0.500000 -0.000002
v -0.100022 1.000000 -0.000002
v -0.000022 0.000000 -0.000002
v -0.000022 1.000000 -0.000002
v -0.600022 0.000000 -0.400002
v -0.600022 0.400000 -0.400002
v -0.500022 0.000000 -0.400002
v -0.500022 0.400000 -0.400002
v -0.100022 0.000000 -0.400002
v -0.100022 0.400000 -0.400002
v -0.000022 0.000000 -0.400002
v -0.000022 0.400000 -0.400002
v -0.600022 0.000000 -0.100002
v -0.600022 0.400000 -0.100002
v -0.500022 0.000000 -0.100002
v -0.500022 0.400000 -0.100002
v -0.100022 0.000000 -0.100002
v -0.100022 0.400000 -0.100002
v -0.000022 0.000000 -0.100002
v -0.000022 0.400000 -0.100002
v -0.600022 0.000000 -0.500002
v -0.600022 0.500000 -0.500002
v -0.500022 0.000000 -0.500002
v -0.500022 0.400000 -0.500002
v -0.100022 0.000000 -0.500002
v -0.100022 0.400000 -0.500002
v -0.100022 0.500000 -0.500002
v -0.100022 1.000000 -0.500002
v -0.000022 0.000000 -0.500002
v -0.000022 1.000000 -0.500002
v -0.600022 0.000000 -0.000002
v -0.500022 0.000000 -0.000002
v -0.100022 0.000000 -0.000002
v -0.000022 0.000000 -0.000002
v -0.600022 0.000000 -0.100002
v -0.500022 0.000000 -0.100002
v -0.100022 0.000000 -0.100002
v -0.000022 0.000000 -0.100002
v -0.600022 0.000000 -0.400002
v -0.500022 0.000000 -0.400002
v -0.100022 0.000000 -0.400002
v -0.000022 0.000000 -0.400002
v -0.600022 0.000000 -0.500002
v -0.500022 0.000000 -0.500002
v -0.100022 0.000000 -0.500002
v -0.000022 0.000000 -0.500002
v -0.500022 0.400000 -0.000002
v -0.100022 0.400000 -0.000002
v -0.600022 0.400000 -0.100002
v -0.500022 0.400000 -0.100002
v -0.100022 0.400000 -0.100002
v -0.000022 0.400000 -0.100002
v -0.600022 0.400000 -0.400002
v -0.500022 0.400000 -0.400002
v -0.100022 0.400000 -0.400002
v -0.000022 0.400000 -0.400002
v -0.500022 0.400000 -0.500002
v -0.100022 0.400000 -0.500002
v -0.600022 0.500000 -0.000002
v -0.100022 0.500000 -0.000002
v -0.600022 0.500000 -0.500002
v -0.100022 0.500000 -0.500002
v -0.100022 1.000000 -0.000002
v -0.000022 1.000000 -0.000002
v -0.100022 1.000000 -0.500002
v -0.000022 1.000000 -0.500002
vn -1.0000 -0.0000 -0.0000
vn 1.0000 -0.0000 -0.0000
vn -0.0000 -0.0000 1.0000
vn -0.0000 -0.0000 -1.0000
vn -0.0000 -1.0000 -0.0000
vn -0.0000 1.0000 -0.0000
vt 0.892997 0.697822
vt 0.892997 0.744716
vt 0.890810 0.744716
vt 0.899558 0.697822
vt 0.901745 0.744716
vt 0.899558 0.744716
vt 0.890810 0.686098
vt 0.901745 0.686098
vt 0.840148 0.756440
vt 0.842334 0.803335
vt 0.840148 0.803335
vt 0.842334 0.756440
vt 0.854727 0.756440
vt 0.856914 0.803335
vt 0.854727 0.803335
vt 0.856914 0.756440
vt 0.825204 0.756440
vt 0.836138 0.815058
vt 0.825204 0.815058
vt 0.836138 0.756440
vt 0.844521 0.756440
vt 0.844521 0.803335
vt 0.844521 0.756440
vt 0.846708 0.756440
vt 0.846708 0.803335
vt 0.868942 0.686098
vt 0.871128 0.686098
vt 0.871128 0.732993
vt 0.877689 0.686098
vt 0.879876 0.686098
vt 0.877689 0.732993
vt 0.868942 0.803335
vt 0.879876 0.803335
vt 0.825204 0.744716
vt 0.836138 0.756440
vt 0.825204 0.756440
vt 0.833951 0.744716
vt 0.833951 0.697822
vt 0.836138 0.697822
vt 0.825204 0.686098
vt 0.825204 0.697822
vt 0.847073 0.697822
vt 0.847073 0.686098
vt 0.850717 0.756440
vt 0.846708 0.782019
vt 0.846708 0.756440
vt 0.850717 0.782019
vt 0.860923 0.756440
vt 0.856914 0.782019
vt 0.860923 0.782019
vt 0.854727 0.782019
vt 0.864932 0.756440
vt 0.864932 0.782019
vt 0.858007 0.686098
vt 0.855820 0.697822
vt 0.855820 0.744716
vt 0.858007 0.744716
vt 0.847073 0.744716
vt 0.847073 0.756440
vt 0.868942 0.744716
vt 0.868942 0.756440
vt 0.867119 0.768164
vt 0.864932 0.779887
vt 0.864932 0.768164
vt 0.867119 0.779887
vt 0.867119 0.756440
vt 0.864932 0.756440
vt 0.882063 0.756440
vt 0.879876 0.768164
vt 0.879876 0.756440
vt 0.882063 0.768164
vt 0.879876 0.779887
vt 0.882063 0.779887
vt 0.882063 0.697822
vt 0.879876 0.744716
vt 0.879876 0.697822
vt 0.882063 0.744716
vt 0.888623 0.686098
vt 0.882063 0.686098
vt 0.882063 0.756440
vt 0.888623 0.697822
vt 0.888623 0.744716
vt 0.888623 0.756440
vt 0.890810 0.697822
vt 0.890810 0.744716
vt 0.890810 0.803335
vt 0.901745 0.803335
vt 0.901745 0.744716
vt 0.836138 0.788414
vt 0.840148 0.788414
s 1
usemtl palette.002
f 5/1/1 2/2/1 1/3/1
f 6/4/1 4/5/1 3/6/1
f 7/7/1 5/1/1 1/3/1
f 7/7/1 6/4/1 5/1/1
f 8/8/1 4/5/1 6/4/1
f 8/8/1 6/4/1 7/7/1
f 13/9/1 10/10/1 9/11/1
f 14/12/1 10/10/1 13/9/1
f 15/13/1 12/14/1 11/15/1
f 16/16/1 12/14/1 15/13/1
f 19/17/1 18/18/1 17/19/1
f 20/20/1 18/18/1 19/17/1
f 21/12/2 22/21/2 25/10/2
f 25/10/2 22/21/2 26/22/2
f 23/23/2 24/24/2 27/22/2
f 27/22/2 24/24/2 28/25/2
f 29/26/2 30/27/2 33/28/2
f 31/29/2 32/30/2 34/31/2
f 29/26/2 33/28/2 35/32/2
f 33/28/2 34/31/2 35/32/2
f 34/31/2 32/30/2 36/33/2
f 35/32/2 34/31/2 36/33/2
f 39/34/3 38/35/3 37/36/3
f 40/37/3 38/35/3 39/34/3
f 42/38/3 38/35/3 40/37/3
f 43/39/3 38/35/3 42/38/3
f 45/40/3 42/38/3 41/41/3
f 45/40/3 44/42/3 43/39/3
f 45/40/3 43/39/3 42/38/3
f 46/43/3 44/42/3 45/40/3
f 49/44/3 48/45/3 47/46/3
f 50/47/3 48/45/3 49/44/3
f 53/48/3 52/49/3 51/16/3
f 54/50/3 52/49/3 53/48/3
f 55/13/4 56/51/4 57/44/4
f 57/44/4 56/51/4 58/47/4
f 59/52/4 60/53/4 61/48/4
f 61/48/4 60/53/4 62/50/4
f 63/43/4 64/54/4 65/42/4
f 65/42/4 64/54/4 66/55/4
f 66/55/4 64/54/4 68/56/4
f 68/56/4 64/54/4 69/57/4
f 67/58/4 68/56/4 71/59/4
f 69/57/4 70/60/4 71/59/4
f 68/56/4 69/57/4 71/59/4
f 71/59/4 70/60/4 72/61/4
f 77/62/5 74/63/5 73/64/5
f 78/65/5 74/63/5 77/62/5
f 79/66/5 76/64/5 75/67/5
f 80/62/5 76/64/5 79/66/5
f 85/68/5 82/69/5 81/70/5
f 86/71/5 82/69/5 85/68/5
f 87/71/5 84/72/5 83/69/5
f 88/73/5 84/72/5 87/71/5
f 92/74/5 90/75/5 89/76/5
f 93/77/5 90/75/5 92/74/5
f 95/78/5 92/74/5 91/79/5
f 95/78/5 94/80/5 93/77/5
f 95/78/5 93/77/5 92/74/5
f 96/81/5 94/80/5 95/78/5
f 97/82/5 94/80/5 96/81/5
f 98/83/5 94/80/5 97/82/5
f 99/84/5 97/82/5 96/81/5
f 100/85/5 97/82/5 99/84/5
f 101/86/6 102/85/6 103/87/6
f 103/87/6 102/85/6 104/88/6
f 105/35/6 106/9/6 107/89/6
f 107/89/6 106/9/6 108/90/6
