# Blender 4.4.3
# www.blender.org
mtllib Station_Charge.mtl
o Untitled
v -0.600077 -0.000000 0.000000
v -0.600077 -0.000000 -0.700000
v -0.600077 0.100000 -0.200000
v -0.600077 0.100000 -0.500000
v -0.600077 0.200000 -0.200000
v -0.600077 0.200000 -0.500000
v -0.600077 0.300000 0.000000
v -0.600077 0.300000 -0.700000
v -0.500077 0.100000 -0.100000
v -0.500077 0.100000 -0.200000
v -0.500077 0.100000 -0.500000
v -0.500077 0.100000 -0.600000
v -0.500077 0.200000 -0.100000
v -0.500077 0.200000 -0.200000
v -0.500077 0.200000 -0.500000
v -0.500077 0.200000 -0.600000
v -0.500077 0.300000 -0.100000
v -0.500077 0.300000 -0.600000
v -0.200077 0.200000 0.000000
v -0.200077 0.200000 -0.100000
v -0.200077 0.200000 -0.600000
v -0.200077 0.200000 -0.700000
v -0.200077 0.300000 0.000000
v -0.200077 0.300000 -0.100000
v -0.200077 0.300000 -0.600000
v -0.200077 0.300000 -0.700000
v -0.000077 -0.000000 0.000000
v -0.000077 -0.000000 -0.700000
v -0.000077 0.100000 -0.100000
v -0.000077 0.100000 -0.600000
v -0.000077 0.200000 0.000000
v -0.000077 0.200000 -0.100000
v -0.000077 0.200000 -0.600000
v -0.000077 0.200000 -0.700000
v -0.600077 -0.000000 0.000000
v -0.600077 0.300000 0.000000
v -0.500077 0.100000 0.000000
v -0.500077 0.200000 0.000000
v -0.200077 0.200000 0.000000
v -0.200077 0.300000 0.000000
v -0.100077 0.100000 0.000000
v -0.100077 0.200000 0.000000
v -0.000077 -0.000000 0.000000
v -0.000077 0.200000 0.000000
v -0.500077 0.100000 -0.600000
v -0.500077 0.200000 -0.600000
v -0.500077 0.300000 -0.600000
v -0.200077 0.200000 -0.600000
v -0.200077 0.300000 -0.600000
v -0.100077 0.100000 -0.600000
v -0.100077 0.200000 -0.600000
v -0.000077 0.100000 -0.600000
v -0.000077 0.200000 -0.600000
v -0.500077 0.100000 -0.100000
v -0.500077 0.200000 -0.100000
v -0.500077 0.300000 -0.100000
v -0.200077 0.200000 -0.100000
v -0.200077 0.300000 -0.100000
v -0.100077 0.100000 -0.100000
v -0.100077 0.200000 -0.100000
v -0.000077 0.100000 -0.100000
v -0.000077 0.200000 -0.100000
v -0.600077 -0.000000 -0.700000
v -0.600077 0.300000 -0.700000
v -0.500077 0.100000 -0.700000
v -0.500077 0.200000 -0.700000
v -0.200077 0.200000 -0.700000
v -0.200077 0.300000 -0.700000
v -0.100077 0.100000 -0.700000
v -0.100077 0.200000 -0.700000
v -0.000077 -0.000000 -0.700000
v -0.000077 0.200000 -0.700000
v -0.600077 -0.000000 0.000000
v -0.000077 -0.000000 0.000000
v -0.600077 -0.000000 -0.700000
v -0.000077 -0.000000 -0.700000
v -0.500077 0.100000 -0.100000
v -0.100077 0.100000 -0.100000
v -0.000077 0.100000 -0.100000
v -0.500077 0.100000 -0.200000
v -0.500077 0.100000 -0.500000
v -0.500077 0.100000 -0.600000
v -0.100077 0.100000 -0.600000
v -0.000077 0.100000 -0.600000
v -0.200077 0.200000 0.000000
v -0.100077 0.200000 0.000000
v -0.000077 0.200000 0.000000
v -0.200077 0.200000 -0.100000
v -0.100077 0.200000 -0.100000
v -0.000077 0.200000 -0.100000
v -0.200077 0.200000 -0.600000
v -0.100077 0.200000 -0.600000
v -0.000077 0.200000 -0.600000
v -0.200077 0.200000 -0.700000
v -0.100077 0.200000 -0.700000
v -0.000077 0.200000 -0.700000
v -0.600077 0.300000 0.000000
v -0.200077 0.300000 0.000000
v -0.500077 0.300000 -0.100000
v -0.200077 0.300000 -0.100000
v -0.500077 0.300000 -0.600000
v -0.200077 0.300000 -0.600000
v -0.600077 0.300000 -0.700000
v -0.200077 0.300000 -0.700000
vn -1.0000 -0.0000 -0.0000
vn 1.0000 -0.0000 -0.0000
vn -0.0000 -0.0000 1.0000
vn -0.0000 -0.0000 -1.0000
vn -0.0000 -1.0000 -0.0000
vn -0.0000 1.0000 -0.0000
vt 0.959389 0.565372
vt 0.957145 0.585938
vt 0.957145 0.557145
vt 0.959389 0.577711
vt 0.961632 0.565372
vt 0.649528 0.702173
vt 0.190885 0.350324
vt 0.649528 0.350324
vt 0.961632 0.577711
vt 0.190885 0.702173
vt 0.963876 0.557145
vt 0.963876 0.585938
vt 0.953066 0.587309
vt 0.953066 0.591422
vt 0.950823 0.587309
vt 0.485101 0.639352
vt 0.485101 0.221296
vt 0.561111 0.639352
vt 0.950823 0.591422
vt 0.953066 0.603761
vt 0.953066 0.607874
vt 0.950823 0.603761
vt 0.561111 0.221296
vt 0.950823 0.607874
vt 0.948579 0.587309
vt 0.948579 0.607874
vt 0.940013 0.602390
vt 0.941236 0.602390
vt 0.940013 0.609931
vt 0.941236 0.609931
vt 0.942460 0.602390
vt 0.942460 0.609931
vt 0.961632 0.585938
vt 0.961632 0.614730
vt 0.959389 0.590051
vt 0.959389 0.610617
vt 0.957145 0.590051
vt 0.957145 0.610617
vt 0.957145 0.614730
vt 0.968771 0.594849
vt 0.971218 0.602390
vt 0.967547 0.602390
vt 0.969995 0.594849
vt 0.333081 0.360648
vt 0.333081 0.778704
vt 0.257070 0.778704
vt 0.969995 0.572227
vt 0.971218 0.572227
vt 0.968771 0.564686
vt 0.257070 0.221296
vt 0.333081 0.221296
vt 0.967547 0.557145
vt 0.969995 0.564686
vt 0.969995 0.557145
vt 0.409091 0.360648
vt 0.409091 0.778704
vt 0.333081 0.778704
vt 0.954290 0.609931
vt 0.953066 0.609931
vt 0.954290 0.587309
vt 0.333081 0.221296
vt 0.409091 0.221296
vt 0.955922 0.587309
vt 0.957145 0.594849
vt 0.955922 0.594849
vt 0.957145 0.587309
vt 0.485101 0.778704
vt 0.409091 0.778704
vt 0.409091 0.360648
vt 0.962652 0.585938
vt 0.962652 0.608560
vt 0.963876 0.608560
vt 0.485101 0.221296
vt 0.409091 0.221296
vt 0.955922 0.602390
vt 0.957145 0.602390
vt 0.965100 0.564686
vt 0.966323 0.564686
vt 0.257070 0.778704
vt 0.181060 0.778704
vt 0.181060 0.360648
vt 0.966323 0.587309
vt 0.967547 0.587309
vt 0.965100 0.594849
vt 0.181060 0.221296
vt 0.963876 0.602390
vt 0.966323 0.594849
vt 0.966323 0.602390
vt 0.948579 0.557145
vt 0.940013 0.557145
vt 0.948579 0.602390
vt 0.852137 0.597483
vt 0.864953 0.574056
vt 0.852655 0.598436
vt 0.868157 0.568200
vt 0.854210 0.601296
vt 0.854729 0.602249
vt 0.867545 0.578823
vt 0.870749 0.572966
vt 0.561111 0.360648
vt 0.561111 0.221296
vt 0.637122 0.360648
vt 0.954290 0.594849
vt 0.955514 0.594849
vt 0.637122 0.221296
vt 0.955514 0.587309
vt 0.561111 0.500000
vt 0.637122 0.500000
vt 0.954698 0.602390
vt 0.954698 0.594849
vt 0.637122 0.360648
vt 0.949803 0.579768
vt 0.949803 0.557145
vt 0.955922 0.579768
vt 0.955922 0.557145
s 1
usemtl palette
f 3/1/1 2/2/1 1/3/1
f 4/4/1 2/2/1 3/1/1
f 5/5/1 3/1/1 1/3/1
f 6/9/1 2/2/1 4/4/1
f 7/11/1 5/5/1 1/3/1
f 7/11/1 6/9/1 5/5/1
f 8/12/1 2/2/1 6/9/1
f 8/12/1 6/9/1 7/11/1
f 9/13/2 10/14/2 13/15/2
f 13/15/2 10/14/2 14/19/2
f 11/20/2 12/21/2 15/22/2
f 15/22/2 12/21/2 16/24/2
f 13/15/2 14/19/2 17/25/2
f 14/19/2 15/22/2 17/25/2
f 15/22/2 16/24/2 17/25/2
f 17/25/2 16/24/2 18/26/2
f 19/27/2 20/28/2 23/29/2
f 23/29/2 20/28/2 24/30/2
f 21/28/2 22/31/2 25/30/2
f 25/30/2 22/31/2 26/32/2
f 27/33/2 28/34/2 29/35/2
f 29/35/2 28/34/2 30/36/2
f 27/33/2 29/35/2 31/2/2
f 31/2/2 29/35/2 32/37/2
f 30/36/2 28/34/2 33/38/2
f 33/38/2 28/34/2 34/39/2
f 37/40/3 36/41/3 35/42/3
f 38/43/3 36/41/3 37/40/3
f 39/47/3 36/41/3 38/43/3
f 40/48/3 36/41/3 39/47/3
f 41/49/3 37/40/3 35/42/3
f 43/52/3 41/49/3 35/42/3
f 43/52/3 42/53/3 41/49/3
f 44/54/3 42/53/3 43/52/3
f 48/13/3 47/58/3 46/59/3
f 49/60/3 47/58/3 48/13/3
f 52/63/3 51/64/3 50/65/3
f 53/66/3 51/64/3 52/63/3
f 55/70/4 56/12/4 57/71/4
f 57/71/4 56/12/4 58/72/4
f 59/65/4 60/64/4 61/75/4
f 61/75/4 60/64/4 62/76/4
f 63/11/4 64/52/4 65/77/4
f 65/77/4 64/52/4 66/78/4
f 66/78/4 64/52/4 67/82/4
f 67/82/4 64/52/4 68/83/4
f 63/11/4 65/77/4 69/84/4
f 63/11/4 69/84/4 71/86/4
f 69/84/4 70/87/4 71/86/4
f 71/86/4 70/87/4 72/88/4
f 75/89/5 74/27/5 73/90/5
f 76/91/5 74/27/5 75/89/5
f 77/92/6 78/93/6 80/94/6
f 78/93/6 79/95/6 80/94/6
f 80/94/6 79/95/6 81/96/6
f 81/96/6 79/95/6 82/97/6
f 82/97/6 79/95/6 83/98/6
f 83/98/6 79/95/6 84/99/6
f 86/103/6 87/60/6 89/104/6
f 89/104/6 87/60/6 90/106/6
f 92/109/6 93/110/6 95/75/6
f 95/75/6 93/110/6 96/65/6
f 97/25/6 98/89/6 99/112/6
f 99/112/6 98/89/6 100/113/6
f 97/25/6 99/112/6 101/114/6
f 97/25/6 101/114/6 103/66/6
f 101/114/6 102/115/6 103/66/6
f 103/66/6 102/115/6 104/3/6
usemtl Material
f 5/6/1 4/7/1 3/8/1
f 6/10/1 4/7/1 5/6/1
f 10/16/2 11/17/2 14/18/2
f 14/18/2 11/17/2 15/23/2
f 39/44/3 38/45/3 37/46/3
f 41/50/3 39/44/3 37/46/3
f 42/51/3 39/44/3 41/50/3
f 48/55/3 46/56/3 45/57/3
f 50/61/3 48/55/3 45/57/3
f 51/62/3 48/55/3 50/61/3
f 54/67/4 55/68/4 57/69/4
f 54/67/4 57/69/4 59/73/4
f 59/73/4 57/69/4 60/74/4
f 65/79/4 66/80/4 67/81/4
f 65/79/4 67/81/4 69/50/4
f 69/50/4 67/81/4 70/85/4
f 85/100/6 86/101/6 88/102/6
f 88/102/6 86/101/6 89/105/6
f 91/107/6 92/100/6 94/108/6
f 94/108/6 92/100/6 95/111/6
